<svg width="9" height="15" viewBox="0 0 9 15" fill="none" xmlns="http://www.w3.org/2000/svg">
<path d="M5.22792 14.8644H2.85928C2.46364 14.8644 2.14181 14.5538 2.14181 14.1721V9.01711H0.759894C0.364256 9.01711 0.0424194 8.70646 0.0424194 8.32482V6.1159C0.0424194 5.73415 0.364256 5.42362 0.759894 5.42362H2.14181V4.31747C2.14181 3.22068 2.49874 2.28755 3.17389 1.61911C3.8521 0.947625 4.79989 0.592773 5.91481 0.592773L7.72125 0.595604C8.11621 0.596258 8.43748 0.906794 8.43748 1.28789V3.33882C8.43748 3.72057 8.11576 4.0311 7.72023 4.0311L6.50398 4.03154C6.13305 4.03154 6.0386 4.10329 6.0184 4.12529C5.98511 4.16176 5.9455 4.26488 5.9455 4.54961V5.42351H7.62883C7.75555 5.42351 7.87833 5.45367 7.98384 5.51051C8.21145 5.63322 8.35296 5.86525 8.35296 6.11601L8.35206 8.32493C8.35206 8.70646 8.03022 9.017 7.63458 9.017H5.9455V14.1721C5.9455 14.5538 5.62356 14.8644 5.22792 14.8644ZM3.00891 14.0277H5.07828V8.64255C5.07828 8.38765 5.29325 8.18034 5.55731 8.18034H7.48495L7.48574 6.26028H5.5572C5.29314 6.26028 5.07828 6.05297 5.07828 5.79807V4.54961C5.07828 4.22274 5.1127 3.85101 5.36841 3.57161C5.67738 3.23386 6.16431 3.19488 6.50375 3.19488L7.57037 3.19444V1.43205L5.91413 1.42944C4.12236 1.42944 3.00891 2.53613 3.00891 4.31747V5.79807C3.00891 6.05286 2.79406 6.26028 2.53 6.26028H0.909528V8.18034H2.53C2.79406 8.18034 3.00891 8.38765 3.00891 8.64255V14.0277Z" fill="white"/>
</svg>
