<svg width="18" height="18" viewBox="0 0 18 18" fill="none" xmlns="http://www.w3.org/2000/svg">
<path d="M12.772 0.708008H4.87513C2.69447 0.708008 0.926697 2.47578 0.926697 4.65644V12.5533C0.926697 14.7339 2.69447 16.5017 4.87513 16.5017H12.772C14.9526 16.5017 16.7204 14.7339 16.7204 12.5533V4.65644C16.7204 2.47578 14.9526 0.708008 12.772 0.708008Z" stroke="white" stroke-linecap="round" stroke-linejoin="round"/>
<path d="M11.9824 8.10728C12.0798 8.76449 11.9676 9.4357 11.6616 10.0254C11.3556 10.6152 10.8714 11.0934 10.2779 11.3921C9.68446 11.6908 9.01191 11.7948 8.35595 11.6892C7.69999 11.5837 7.09401 11.274 6.62421 10.8042C6.15441 10.3344 5.84471 9.7284 5.73916 9.07244C5.6336 8.41648 5.73758 7.74394 6.03628 7.15047C6.33499 6.55701 6.81322 6.07284 7.40296 5.76684C7.99269 5.46084 8.6639 5.34858 9.32112 5.44604C9.9915 5.54544 10.6121 5.85783 11.0914 6.33704C11.5706 6.81626 11.8829 7.43689 11.9824 8.10728Z" stroke="white" stroke-linecap="round" stroke-linejoin="round"/>
<path d="M13.1668 4.26172H13.1733" stroke="white" stroke-linecap="round" stroke-linejoin="round"/>
</svg>
