<svg width="35" height="35" viewBox="0 0 35 35" fill="none" xmlns="http://www.w3.org/2000/svg">
<circle cx="17.5" cy="17.5" r="17.5" fill="white" fill-opacity="0.85"/>
<path d="M23.63 12.4575C23.2469 12.0743 22.7921 11.7703 22.2915 11.5628C21.7909 11.3554 21.2544 11.2487 20.7125 11.2487C20.1706 11.2487 19.6341 11.3554 19.1335 11.5628C18.6329 11.7703 18.1781 12.0743 17.795 12.4575L17 13.2525L16.205 12.4575C15.4312 11.6838 14.3818 11.2491 13.2875 11.2491C12.1932 11.2491 11.1438 11.6838 10.37 12.4575C9.59623 13.2313 9.16153 14.2808 9.16153 15.375C9.16153 16.4693 9.59623 17.5188 10.37 18.2925L11.165 19.0875L17 24.9225L22.835 19.0875L23.63 18.2925C24.0132 17.9095 24.3173 17.4546 24.5247 16.954C24.7321 16.4534 24.8389 15.9169 24.8389 15.375C24.8389 14.8332 24.7321 14.2966 24.5247 13.796C24.3173 13.2954 24.0132 12.8406 23.63 12.4575V12.4575Z" stroke="black" stroke-width="1.3" stroke-linecap="round" stroke-linejoin="round"/>
</svg>
