<svg width="110" height="72" viewBox="0 0 110 72" fill="none" xmlns="http://www.w3.org/2000/svg">
<path opacity="0.15" d="M89.5396 50.7431C88.4059 50.9332 87.2491 51.04 86.0749 51.0517L86.069 51.0455L85.8516 51.0455C81.2043 51.0455 76.658 49.5681 72.7878 46.7955C68.917 44.0226 65.8951 40.0775 64.1094 35.4553C62.3236 30.833 61.8559 25.745 62.7667 20.8359C63.6774 15.927 65.9247 11.4222 69.2195 7.88971C72.514 4.35758 76.707 1.95655 81.2663 0.984235C85.8252 0.0119913 90.551 0.510603 94.8478 2.41881C99.1452 4.32725 102.824 7.56168 105.415 11.7186C108.005 15.8759 109.39 20.7668 109.39 25.7727L109.39 25.7802L109.39 25.7877L109.5 29.462C109.498 43.0082 104.478 55.9928 95.553 65.5617C86.7455 75.0045 74.8491 80.3572 62.4231 80.4972L62.4231 66.7703C66.8353 66.7146 71.1977 65.7564 75.2754 63.9463C79.5072 62.0678 83.3473 59.3097 86.5747 55.8331C87.8287 54.4911 88.9854 53.0488 90.0346 51.519L90.7003 50.5484L89.5396 50.7431ZM27.7264 50.7431C26.6834 50.918 25.6208 51.0224 24.5385 51.0471L24.5385 51.0455L24.0385 51.0455C19.3911 51.0455 14.8449 49.5681 10.9746 46.7955C7.10383 44.0226 4.08194 40.0775 2.29622 35.4553C0.510434 30.833 0.0427371 25.745 0.953504 20.8359C1.86426 15.927 4.11156 11.4222 7.40635 7.8897C10.7008 4.35757 14.8938 1.95654 19.4531 0.98423C24.012 0.0119859 28.7378 0.510598 33.0347 2.4188C37.332 4.32724 41.0107 7.56168 43.6014 11.7186C46.1922 15.8759 47.5769 20.7668 47.5769 25.7727L47.5769 25.7802L47.5771 25.7876L47.6868 29.462C47.685 43.0082 42.6647 55.9928 33.7398 65.5616C24.9323 75.0045 13.0359 80.3572 0.609886 80.4972L0.609887 66.7703C5.02207 66.7146 9.38454 65.7564 13.4622 63.9463C17.694 62.0678 21.5341 59.3097 24.7615 55.8331C26.0156 54.4911 27.1722 53.0488 28.2214 51.519L28.8871 50.5484L27.7264 50.7431Z" fill="#FE5269" stroke="#FE5269"/>
</svg>
